# xmcd
#
# Track frame offsets: 
#        182
#        11655
#        21817
#        34220
#        46012
#        61965
#        73287
#        91685
#        104840
#        116505
#        129262
#        141675
#        152202
#        165697
#        176980
#        192822
#        203992
#        216162
#        236277
#        247825
#        261550
#        278960
#
# Disc length: 3902 seconds
#
# Revision: 5
# Processed by: cddbd v1.5.2PL0 Copyright (c) Steve Scherf et al.
# Submitted via: ExactAudioCopyFreeDBPlugin 1.0
#
DISCID=480f3c16
DTITLE=John Lee Hooker - The Best Of John Lee Hooker
DYEAR=1996
DGENRE=Blues
TTITLE0=Boom Boom
TTITLE1=Dimples
TTITLE2=I'm In The Mood
TTITLE3=Boogie Chillun
TTITLE4=It Serves Me Right To Suffer
TTITLE5=This Is Hip
TTITLE6=House Rent Boogie
TTITLE7=I'm So Excited
TTITLE8=I Love You Honey
TTITLE9=Hobo Blues
TTITLE10=Crawlin' Kingsnake
TTITLE11=Maudie
TTITLE12=Baby Lee
TTITLE13=Good Rockin' Mama
TTITLE14=Dirty Ground Hog Blues
TTITLE15=Bottle Up And Go
TTITLE16=Everybody Rockin'
TTITLE17=Nightmare
TTITLE18=Will The Circle Be Unbroken
TTITLE19=You're Gonna Miss Me When I'm Gone
TTITLE20=Blues Before Sunrise
TTITLE21=Time Is Marching
EXTD=YEAR: 1996
EXTT0=
EXTT1=
EXTT2=
EXTT3=
EXTT4=
EXTT5=
EXTT6=
EXTT7=
EXTT8=
EXTT9=
EXTT10=
EXTT11=
EXTT12=
EXTT13=
EXTT14=
EXTT15=
EXTT16=
EXTT17=
EXTT18=
EXTT19=
EXTT20=
EXTT21=
PLAYORDER=
